<?xml version="1.0"?>
<!DOCTYPE svg PUBLIC "-//W3C//DTD SVG 1.1//EN" "http://www.w3.org/Graphics/SVG/1.1/DTD/svg11.dtd">
<svg xmlns="http://www.w3.org/2000/svg" version="1.1" width="512" height="512">
<path d="M13.25 30L8 30L8 3.75L39.50 3.75Q41.67 3.75 43.19 5.31L43.19 5.31Q44.75 6.87 44.75 9L44.75 9L44.75 30L39.50 30L39.50 9L29 9L29 30L23.75 30L23.75 9L13.25 9L13.25 30Z"/>
<path d="M85.50 30L59.25 30Q57.04 30 55.52 28.48L55.52 28.48Q54 26.92 54 24.75L54 24.75L54 3.75L59.25 3.75L59.25 24.75L69.75 24.75L69.75 3.75L75 3.75L75 24.75L85.50 24.75L85.50 3.75L90.75 3.75L90.75 24.75Q90.75 26.96 89.19 28.48L89.19 28.48Q87.63 30 85.50 30L85.50 30Z"/>
<path d="M105.25 30L100 30L100 3.75L131.50 3.75Q133.67 3.75 135.19 5.31L135.19 5.31Q136.75 6.87 136.75 9L136.75 9L136.75 30L131.50 30L131.50 9L121 9L121 30L115.75 30L115.75 9L105.25 9L105.25 30Z"/>
<path d="M177.50 30L151.25 30Q149.04 30 147.52 28.48L147.52 28.48Q146 26.92 146 24.75L146 24.75L146 3.75L151.25 3.75L151.25 24.75L161.75 24.75L161.75 3.75L167 3.75L167 24.75L177.50 24.75L177.50 3.75L182.75 3.75L182.75 24.75Q182.75 26.96 181.19 28.48L181.19 28.48Q179.63 30 177.50 30L177.50 30Z"/>
<path d="M192 35.25L192 35.25L192 24.75L197.25 24.75L197.25 30Q197.25 32.17 195.69 33.69L195.69 33.69Q194.13 35.25 192 35.25L192 35.25ZM197.25 9L192 9L192 3.75L197.25 3.75L197.25 9Z"/>
<path d="M13.25 59.75L29 59.75L29 44L13.25 44L13.25 59.75ZM34.25 70.25L29 70.25L29 65L13.25 65Q11.04 65 9.52 63.48L9.52 63.48Q8 61.92 8 59.75L8 59.75L8 44Q8 41.83 9.52 40.31L9.52 40.31Q11.08 38.75 13.25 38.75L13.25 38.75L29 38.75Q31.17 38.75 32.69 40.31L32.69 40.31Q34.25 41.87 34.25 44L34.25 44L34.25 70.25Z"/>
<path d="M47.75 65L42.50 65L42.50 59.75L47.75 59.75L47.75 65ZM47.75 54.50L42.50 54.50L42.50 38.75L47.75 38.75L47.75 54.50Z"/>
<path d="M67.50 54.50L72.75 54.50L72.75 49.25L67.50 49.25L67.50 54.50ZM67.50 65L62.25 65L62.25 59.75L57 59.75L57 54.50L62.25 54.50L62.25 49.25L57 49.25L57 44L62.25 44L62.25 38.75L67.50 38.75L67.50 44L72.75 44L72.75 38.75L78 38.75L78 44L83.25 44L83.25 49.25L78 49.25L78 54.50L83.25 54.50L83.25 59.75L78 59.75L78 65L72.75 65L72.75 59.75L67.50 59.75L67.50 65Z"/>
<path d="M107.75 59.75L113 59.75L113 54.50L107.75 54.50L107.75 59.75ZM97.25 49.25L102.50 49.25L102.50 44L97.25 44L97.25 49.25ZM113 65L92 65L92 59.75L102.50 59.75L102.50 54.50L97.25 54.50Q95.04 54.50 93.52 52.98L93.52 52.98Q92 51.42 92 49.25L92 49.25L92 44Q92 41.83 93.52 40.31L93.52 40.31Q95.08 38.75 97.25 38.75L97.25 38.75L118.25 38.75L118.25 44L107.75 44L107.75 49.25L113 49.25Q115.17 49.25 116.69 50.81L116.69 50.81Q118.25 52.37 118.25 54.50L118.25 54.50L118.25 59.75Q118.25 61.96 116.69 63.48L116.69 63.48Q115.13 65 113 65L113 65Z"/>
<path d="M148 65L142.75 65L142.75 59.75L148 59.75L148 65ZM132.25 44L127 44L127 38.75L132.25 38.75L132.25 44ZM132.25 65L127 65L127 54.50Q127 52.33 128.52 50.81L128.52 50.81Q130.08 49.25 132.25 49.25L132.25 49.25L142.75 49.25L142.75 38.75L148 38.75L148 49.25Q148 51.46 146.44 52.98L146.44 52.98Q144.88 54.50 142.75 54.50L142.75 54.50L132.25 54.50L132.25 65Z"/>
<path d="M162.25 59.75L172.75 59.75L172.75 54.50L162.25 54.50L162.25 59.75ZM167.50 49.25L172.75 49.25L172.75 44L167.50 44L167.50 49.25ZM178 65L157 65L157 49.25L162.25 49.25L162.25 38.75L172.75 38.75Q174.92 38.75 176.44 40.31L176.44 40.31Q178 41.87 178 44L178 44L178 49.25Q178 50.36 177.22 51.14L177.22 51.14Q176.44 51.88 175.38 51.88L175.38 51.88Q176.44 51.88 177.22 52.65L177.22 52.65Q178 53.43 178 54.50L178 54.50L178 59.75L183.25 59.75Q183.25 61.96 181.69 63.48L181.69 63.48Q180.13 65 178 65L178 65Z"/>
<path d="M216.50 30L211.25 30Q209.04 30 207.52 28.48L207.52 28.48Q206 26.92 206 24.75L206 24.75L206 9Q206 6.83 207.52 5.31L207.52 5.31Q209.08 3.75 211.25 3.75L211.25 3.75L216.50 3.75L216.50 9L211.25 9L211.25 24.75L216.50 24.75L216.50 30Z"/>
<path d="M231.25 30L226 30L226 24.75L231.25 24.75L231.25 9L226 9L226 3.75L231.25 3.75Q233.42 3.75 234.94 5.31L234.94 5.31Q236.50 6.87 236.50 9L236.50 9L236.50 24.75Q236.50 26.96 234.94 28.48L234.94 28.48Q233.38 30 231.25 30L231.25 30Z"/>
<path d="M261.75 30L256.50 30L256.50 19.50L246 19.50L246 14.25L256.50 14.25L256.50 3.75L261.75 3.75L261.75 14.25L272.25 14.25L272.25 19.50L261.75 19.50L261.75 30Z"/>
<path d="M307.25 9.50L281 9.50L281 4.25L307.25 4.25L307.25 9.50Z"/>
<path d="M321.25 30L316 30L316 19.50Q316 17.33 317.52 15.81L317.52 15.81Q319.08 14.25 321.25 14.25L321.25 14.25L321.25 3.75L326.50 3.75L326.50 14.25Q326.50 16.46 324.94 17.98L324.94 17.98Q323.38 19.50 321.25 19.50L321.25 19.50L321.25 30Z"/>
<path d="M286.25 38.75L302 38.75L302 23L286.25 23L286.25 38.75ZM302 44L286.25 44Q284.04 44 282.52 42.48L282.52 42.48Q281 40.92 281 38.75L281 38.75L281 23Q281 20.83 282.52 19.31L282.52 19.31Q284.08 17.75 286.25 17.75L286.25 17.75L302 17.75Q304.17 17.75 305.69 19.31L305.69 19.31Q307.25 20.87 307.25 23L307.25 23L307.25 38.75Q307.25 40.96 305.69 42.48L305.69 42.48Q304.13 44 302 44L302 44Z"/>
<path d="M216.50 65L211.25 65L211.25 44L206 44L206 38.75L211.25 38.75Q213.42 38.75 214.94 40.31L214.94 40.31Q216.50 41.87 216.50 44L216.50 44L216.50 65Z"/>
<path d="M252.25 65L231.25 65Q229.04 65 227.52 63.48L227.52 63.48Q226 61.92 226 59.75L226 59.75L226 54.50Q226 52.33 227.52 50.81L227.52 50.81Q229.08 49.25 231.25 49.25L231.25 49.25L247 49.25L247 44L226 44L226 38.75L247 38.75Q249.17 38.75 250.69 40.31L250.69 40.31Q252.25 41.87 252.25 44L252.25 44L252.25 49.25Q252.25 51.46 250.69 52.98L250.69 52.98Q249.13 54.50 247 54.50L247 54.50L231.25 54.50L231.25 59.75L252.25 59.75L252.25 65Z"/>
<path d="M357 30L336 30L336 24.75L357 24.75L357 19.50L336 19.50L336 14.25L357 14.25L357 9L336 9L336 3.75L357 3.75Q359.17 3.75 360.69 5.31L360.69 5.31Q362.25 6.87 362.25 9L362.25 9L362.25 24.75Q362.25 26.96 360.69 28.48L360.69 28.48Q359.13 30 357 30L357 30Z"/>
<path d="M397.25 30L392 30L392 19.50L376.25 19.50Q374.04 19.50 372.52 17.98L372.52 17.98Q371 16.42 371 14.25L371 14.25L371 3.75L376.25 3.75L376.25 14.25L392 14.25L392 3.75L397.25 3.75L397.25 30Z"/>
<path d="M427 30L406 30L406 24.75L427 24.75L427 19.50L411.25 19.50Q409.04 19.50 407.52 17.98L407.52 17.98Q406 16.42 406 14.25L406 14.25L406 9Q406 6.83 407.52 5.31L407.52 5.31Q409.08 3.75 411.25 3.75L411.25 3.75L432.25 3.75L432.25 9L411.25 9L411.25 14.25L427 14.25Q429.17 14.25 430.69 15.81L430.69 15.81Q432.25 17.37 432.25 19.50L432.25 19.50L432.25 24.75Q432.25 26.96 430.69 28.48L430.69 28.48Q429.13 30 427 30L427 30Z"/>
<path d="M446.25 24.75L462 24.75L462 19.50L446.25 19.50L446.25 24.75ZM462 30L446.25 30Q444.04 30 442.52 28.48L442.52 28.48Q441 26.92 441 24.75L441 24.75L441 9Q441 6.83 442.52 5.31L442.52 5.31Q444.08 3.75 446.25 3.75L446.25 3.75L467.25 3.75L467.25 9L446.25 9L446.25 14.25L462 14.25Q464.17 14.25 465.69 15.81L465.69 15.81Q467.25 17.37 467.25 19.50L467.25 19.50L467.25 24.75Q467.25 26.96 465.69 28.48L465.69 28.48Q464.13 30 462 30L462 30Z"/>
<path d="M502.25 30L497 30L497 9L476 9L476 3.75L497 3.75Q499.17 3.75 500.69 5.31L500.69 5.31Q502.25 6.87 502.25 9L502.25 9L502.25 30Z"/>
<path d="M321.25 59.75L337 59.75L337 54.50L321.25 54.50L321.25 59.75ZM321.25 49.25L337 49.25L337 44L321.25 44L321.25 49.25ZM337 65L321.25 65Q319.04 65 317.52 63.48L317.52 63.48Q316 61.92 316 59.75L316 59.75L316 44Q316 41.83 317.52 40.31L317.52 40.31Q319.08 38.75 321.25 38.75L321.25 38.75L337 38.75Q339.17 38.75 340.69 40.31L340.69 40.31Q342.25 41.87 342.25 44L342.25 44L342.25 59.75Q342.25 61.96 340.69 63.48L340.69 63.48Q339.13 65 337 65L337 65Z"/>
<path d="M266.25 63.25L282 63.25L282 58L266.25 58L266.25 63.25ZM282 79L261 79L261 73.75L282 73.75L282 68.50L266.25 68.50Q264.04 68.50 262.52 66.98L262.52 66.98Q261 65.42 261 63.25L261 63.25L261 58Q261 55.83 262.52 54.31L262.52 54.31Q264.08 52.75 266.25 52.75L266.25 52.75L282 52.75Q284.17 52.75 285.69 54.31L285.69 54.31Q287.25 55.87 287.25 58L287.25 58L287.25 73.75Q287.25 75.96 285.69 77.48L285.69 77.48Q284.13 79 282 79L282 79Z"/>
<path d="M197.25 71L192 71L192 65.75L197.25 65.75L197.25 71ZM197.25 50L192 50L192 44.75L197.25 44.75L197.25 50Z"/>
<path d="M232.25 89.75L206 89.75L206 84.50L232.25 84.50L232.25 89.75ZM232.25 79.25L206 79.25L206 74L232.25 74L232.25 79.25Z"/>
<path d="M58.75 100L53.50 100L53.50 94.75L58.75 94.75L58.75 100ZM64 89.50L53.50 89.50L53.50 84.25L64 84.25L64 79L48.25 79L48.25 84.25L43 84.25L43 79Q43 76.83 44.52 75.31L44.52 75.31Q46.08 73.75 48.25 73.75L48.25 73.75L64 73.75Q66.17 73.75 67.69 75.31L67.69 75.31Q69.25 76.87 69.25 79L69.25 79L69.25 84.25Q69.25 86.46 67.69 87.98L67.69 87.98Q66.13 89.50 64 89.50L64 89.50Z"/>
<path d="M13.25 106L8 106L8 85Q8 82.83 9.52 81.31L9.52 81.31Q11.08 79.75 13.25 79.75L13.25 79.75L29 79.75Q31.17 79.75 32.69 81.31L32.69 81.31Q34.25 82.87 34.25 85L34.25 85L34.25 100.75Q34.25 102.96 32.69 104.48L32.69 104.48Q31.13 106 29 106L29 106L23.75 106Q21.54 106 20.02 104.48L20.02 104.48Q18.50 102.92 18.50 100.75L18.50 100.75L18.50 90.25L23.75 90.25L23.75 100.75L29 100.75L29 85L13.25 85L13.25 106Z"/>
<path d="M83.25 84.25L99 84.25L99 79L83.25 79L83.25 84.25ZM83.25 100L78 100L78 79Q78 76.83 79.52 75.31L79.52 75.31Q81.08 73.75 83.25 73.75L83.25 73.75L99 73.75Q101.17 73.75 102.69 75.31L102.69 75.31Q104.25 76.87 104.25 79L104.25 79L104.25 100L99 100L99 89.50L83.25 89.50L83.25 100Z"/>
<path d="M118.25 94.75L134 94.75L134 89.50L118.25 89.50L118.25 94.75ZM118.25 84.25L134 84.25L134 79L118.25 79L118.25 84.25ZM134 100L113 100L113 73.75L134 73.75Q136.17 73.75 137.69 75.31L137.69 75.31Q139.25 76.87 139.25 79L139.25 79L139.25 84.25Q139.25 85.36 138.47 86.14L138.47 86.14Q137.69 86.88 136.63 86.88L136.63 86.88Q137.69 86.88 138.47 87.65L138.47 87.65Q139.25 88.43 139.25 89.50L139.25 89.50L139.25 94.75Q139.25 96.96 137.69 98.48L137.69 98.48Q136.13 100 134 100L134 100Z"/>
<path d="M169 100L153.25 100Q151.04 100 149.52 98.48L149.52 98.48Q148 96.92 148 94.75L148 94.75L148 79Q148 76.83 149.52 75.31L149.52 75.31Q151.08 73.75 153.25 73.75L153.25 73.75L169 73.75Q171.17 73.75 172.69 75.31L172.69 75.31Q174.25 76.87 174.25 79L174.25 79L174.25 84.25L169 84.25L169 79L153.25 79L153.25 94.75L169 94.75L169 89.50L174.25 89.50L174.25 94.75Q174.25 96.96 172.69 98.48L172.69 98.48Q171.13 100 169 100L169 100Z"/>
<path d="M356.25 59.75L372 59.75L372 44L356.25 44L356.25 59.75ZM372 65L351 65L351 38.75L372 38.75Q374.17 38.75 375.69 40.31L375.69 40.31Q377.25 41.87 377.25 44L377.25 44L377.25 59.75Q377.25 61.96 375.69 63.48L375.69 63.48Q374.13 65 372 65L372 65Z"/>
<path d="M412.25 65L391.25 65Q389.04 65 387.52 63.48L387.52 63.48Q386 61.92 386 59.75L386 59.75L386 44Q386 41.83 387.52 40.31L387.52 40.31Q389.08 38.75 391.25 38.75L391.25 38.75L412.25 38.75L412.25 44L391.25 44L391.25 49.25L412.25 49.25L412.25 54.50L391.25 54.50L391.25 59.75L412.25 59.75L412.25 65Z"/>
<path d="M426.25 65L421 65L421 44Q421 41.83 422.52 40.31L422.52 40.31Q424.08 38.75 426.25 38.75L426.25 38.75L447.25 38.75L447.25 44L426.25 44L426.25 49.25L447.25 49.25L447.25 54.50L426.25 54.50L426.25 65Z"/>
<path d="M477 65L461.25 65Q459.04 65 457.52 63.48L457.52 63.48Q456 61.92 456 59.75L456 59.75L456 44Q456 41.83 457.52 40.31L457.52 40.31Q459.08 38.75 461.25 38.75L461.25 38.75L482.25 38.75L482.25 44L461.25 44L461.25 59.75L477 59.75L477 54.50L466.50 54.50L466.50 49.25L477 49.25Q479.17 49.25 480.69 50.81L480.69 50.81Q482.25 52.37 482.25 54.50L482.25 54.50L482.25 59.75Q482.25 61.96 480.69 63.48L480.69 63.48Q479.13 65 477 65L477 65Z"/>
<path d="M301.25 100L296 100L296 73.75L301.25 73.75L301.25 84.25L317 84.25L317 73.75L322.25 73.75L322.25 100L317 100L317 89.50L301.25 89.50L301.25 100Z"/>
<path d="M246.25 100L241 100L241 73.75L246.25 73.75L246.25 100Z"/>
<path d="M506.75 65L491 65L491 59.75L506.75 59.75L506.75 38.75L512 38.75L512 59.75Q512 61.96 510.44 63.48L510.44 63.48Q508.88 65 506.75 65L506.75 65Z"/>
<path d="M260.25 114L255 114L255 87.75L260.25 87.75L260.25 98.25L270.75 98.25L276 93L276 87.75L281.25 87.75L281.25 95.63L276 100.88L281.25 106.13L281.25 114L276 114L276 108.75L270.75 103.50L260.25 103.50L260.25 114Z"/>
<path d="M209.25 125L188.25 125Q186.04 125 184.52 123.48L184.52 123.48Q183 121.92 183 119.75L183 119.75L183 98.75L188.25 98.75L188.25 119.75L209.25 119.75L209.25 125Z"/>
<path d="M223.25 135L218 135L218 108.75L239 108.75Q241.17 108.75 242.69 110.31L242.69 110.31Q244.25 111.87 244.25 114L244.25 114L244.25 135L239 135L239 114L223.25 114L223.25 135Z"/>
<path d="M48.25 129.75L64 129.75L64 114L48.25 114L48.25 129.75ZM64 135L48.25 135Q46.04 135 44.52 133.48L44.52 133.48Q43 131.92 43 129.75L43 129.75L43 114Q43 111.83 44.52 110.31L44.52 110.31Q46.08 108.75 48.25 108.75L48.25 108.75L64 108.75Q66.17 108.75 67.69 110.31L67.69 110.31Q69.25 111.87 69.25 114L69.25 114L69.25 129.75Q69.25 131.96 67.69 133.48L67.69 133.48Q66.13 135 64 135L64 135Z"/>
<path d="M13.25 125.25L29 125.25L29 120L13.25 120L13.25 125.25ZM13.25 141L8 141L8 114.75L29 114.75Q31.17 114.75 32.69 116.31L32.69 116.31Q34.25 117.87 34.25 120L34.25 120L34.25 125.25Q34.25 127.46 32.69 128.98L32.69 128.98Q31.13 130.50 29 130.50L29 130.50L13.25 130.50L13.25 141Z"/>
<path d="M83.25 129.75L93.75 129.75Q93.75 127.58 95.27 126.06L95.27 126.06Q96.83 124.50 99 124.50L99 124.50L99 114L83.25 114L83.25 129.75ZM99 135L83.25 135Q81.04 135 79.52 133.48L79.52 133.48Q78 131.92 78 129.75L78 129.75L78 114Q78 111.83 79.52 110.31L79.52 110.31Q81.08 108.75 83.25 108.75L83.25 108.75L99 108.75Q101.17 108.75 102.69 110.31L102.69 110.31Q104.25 111.87 104.25 114L104.25 114L104.25 129.75Q102.08 129.75 100.52 131.31L100.52 131.31Q99 132.87 99 135L99 135Z"/>
<path d="M118.25 119.25L134 119.25L134 114L118.25 114L118.25 119.25ZM118.25 135L113 135L113 108.75L134 108.75Q136.17 108.75 137.69 110.31L137.69 110.31Q139.25 111.87 139.25 114L139.25 114L139.25 119.25Q139.25 120.36 138.47 121.14L138.47 121.14Q137.69 121.88 136.63 121.88L136.63 121.88Q137.69 121.88 138.47 122.65L138.47 122.65Q139.25 123.43 139.25 124.50L139.25 124.50L139.25 135L134 135L134 124.50L118.25 124.50L118.25 135Z"/>
<path d="M169 135L148 135L148 129.75L169 129.75L169 124.50L153.25 124.50Q151.04 124.50 149.52 122.98L149.52 122.98Q148 121.42 148 119.25L148 119.25L148 114Q148 111.83 149.52 110.31L149.52 110.31Q151.08 108.75 153.25 108.75L153.25 108.75L174.25 108.75L174.25 114L153.25 114L153.25 119.25L169 119.25Q171.17 119.25 172.69 120.81L172.69 120.81Q174.25 122.37 174.25 124.50L174.25 124.50L174.25 129.75Q174.25 131.96 172.69 133.48L172.69 133.48Q171.13 135 169 135L169 135Z"/>
<path d="M198.75 160L193.50 160L193.50 139L183 139L183 133.75L209.25 133.75L209.25 139L198.75 139L198.75 160Z"/>
<path d="M69.25 170L48.25 170Q46.04 170 44.52 168.48L44.52 168.48Q43 166.92 43 164.75L43 164.75L43 143.75L48.25 143.75L48.25 164.75L64 164.75L64 143.75L69.25 143.75L69.25 170Z"/>
<path d="M21.13 176L21.13 176L8 162.88L8 149.75L13.25 149.75L13.25 160.25L18.50 165.50L18.50 165.54L21.13 168.13L29 160.25L29 149.75L34.25 149.75L34.25 162.88L21.13 176Z"/>
<path d="M83.25 170L78 170L78 159.50Q78 158.43 78.74 157.65L78.74 157.65Q79.52 156.88 80.63 156.88L80.63 156.88Q79.52 156.88 78.74 156.14L78.74 156.14Q78 155.36 78 154.25L78 154.25L78 143.75L83.25 143.75L83.25 154.25L99 154.25L99 143.75L104.25 143.75L104.25 154.25Q104.25 155.36 103.47 156.14L103.47 156.14Q102.69 156.88 101.63 156.88L101.63 156.88Q102.69 156.88 103.47 157.65L103.47 157.65Q104.25 158.43 104.25 159.50L104.25 159.50L104.25 170L99 170L99 159.50L83.25 159.50L83.25 170Z"/>
<path d="M128.75 170L123.50 170L123.50 159.50L118.25 159.50Q116.04 159.50 114.52 157.98L114.52 157.98Q113 156.42 113 154.25L113 154.25L113 143.75L118.25 143.75L118.25 154.25L134 154.25L134 143.75L139.25 143.75L139.25 154.25Q139.25 156.46 137.69 157.98L137.69 157.98Q136.13 159.50 134 159.50L134 159.50L128.75 159.50L128.75 170Z"/>
<path d="M174.25 170L148 170L148 159.50Q148 157.33 149.52 155.81L149.52 155.81Q151.08 154.25 153.25 154.25L153.25 154.25L169 154.25L169 149L148 149L148 143.75L174.25 143.75L174.25 154.25Q174.25 156.46 172.69 157.98L172.69 157.98Q171.13 159.50 169 159.50L169 159.50L153.25 159.50L153.25 164.75L174.25 164.75L174.25 170Z"/>
<path d="M341.50 100L331 100L331 73.75L341.50 73.75L341.50 79L336.25 79L336.25 94.75L341.50 94.75L341.50 100Z"/>
<path d="M361.50 100L356.25 100L356.25 89.50Q354.04 89.50 352.52 87.98L352.52 87.98Q351 86.42 351 84.25L351 84.25L351 73.75L356.25 73.75L356.25 84.25Q358.42 84.25 359.94 85.81L359.94 85.81Q361.50 87.37 361.50 89.50L361.50 89.50L361.50 100Z"/>
<path d="M381.50 100L371 100L371 94.75L376.25 94.75L376.25 79L371 79L371 73.75L381.50 73.75L381.50 100Z"/>
<path d="M417.25 79L391 79L391 73.75L417.25 73.75L417.25 79Z"/>
<path d="M431.25 84.25L447 84.25L447 79L431.25 79L431.25 84.25ZM431.25 100L426 100L426 79Q426 76.83 427.52 75.31L427.52 75.31Q429.08 73.75 431.25 73.75L431.25 73.75L447 73.75Q449.17 73.75 450.69 75.31L450.69 75.31Q452.25 76.87 452.25 79L452.25 79L452.25 100L447 100L447 89.50L431.25 89.50L431.25 100Z"/>
<path d="M396.25 108.75L412 108.75L412 103.50L396.25 103.50L396.25 108.75ZM396.25 98.25L412 98.25L412 93L396.25 93L396.25 98.25ZM412 114L391 114L391 87.75L412 87.75Q414.17 87.75 415.69 89.31L415.69 89.31Q417.25 90.87 417.25 93L417.25 93L417.25 98.25Q417.25 99.36 416.47 100.14L416.47 100.14Q415.69 100.88 414.63 100.88L414.63 100.88Q415.69 100.88 416.47 101.65L416.47 101.65Q417.25 102.43 417.25 103.50L417.25 103.50L417.25 108.75Q417.25 110.96 415.69 112.48L415.69 112.48Q414.13 114 412 114L412 114Z"/>
<path d="M482 100L466.25 100Q464.04 100 462.52 98.48L462.52 98.48Q461 96.92 461 94.75L461 94.75L461 79Q461 76.83 462.52 75.31L462.52 75.31Q464.08 73.75 466.25 73.75L466.25 73.75L482 73.75Q484.17 73.75 485.69 75.31L485.69 75.31Q487.25 76.87 487.25 79L487.25 79L487.25 84.25L482 84.25L482 79L466.25 79L466.25 94.75L482 94.75L482 89.50L487.25 89.50L487.25 94.75Q487.25 96.96 485.69 98.48L485.69 98.48Q484.13 100 482 100L482 100Z"/>
<path d="M431.25 129.75L447 129.75L447 114L431.25 114L431.25 129.75ZM447 135L426 135L426 108.75L447 108.75Q449.17 108.75 450.69 110.31L450.69 110.31Q452.25 111.87 452.25 114L452.25 114L452.25 129.75Q452.25 131.96 450.69 133.48L450.69 133.48Q449.13 135 447 135L447 135Z"/>
<path d="M487.25 135L466.25 135Q464.04 135 462.52 133.48L462.52 133.48Q461 131.92 461 129.75L461 129.75L461 114Q461 111.83 462.52 110.31L462.52 110.31Q464.08 108.75 466.25 108.75L466.25 108.75L487.25 108.75L487.25 114L466.25 114L466.25 119.25L487.25 119.25L487.25 124.50L466.25 124.50L466.25 129.75L487.25 129.75L487.25 135Z"/>
<path d="M295.25 135L290 135L290 114Q290 111.83 291.52 110.31L291.52 110.31Q293.08 108.75 295.25 108.75L295.25 108.75L316.25 108.75L316.25 114L295.25 114L295.25 119.25L316.25 119.25L316.25 124.50L295.25 124.50L295.25 135Z"/>
<path d="M274 149L258.25 149Q256.04 149 254.52 147.48L254.52 147.48Q253 145.92 253 143.75L253 143.75L253 128Q253 125.83 254.52 124.31L254.52 124.31Q256.08 122.75 258.25 122.75L258.25 122.75L279.25 122.75L279.25 128L258.25 128L258.25 143.75L274 143.75L274 138.50L263.50 138.50L263.50 133.25L274 133.25Q276.17 133.25 277.69 134.81L277.69 134.81Q279.25 136.37 279.25 138.50L279.25 138.50L279.25 143.75Q279.25 145.96 277.69 147.48L277.69 147.48Q276.13 149 274 149L274 149Z"/>
<path d="M223.25 170L218 170L218 143.75L223.25 143.75L223.25 154.25L239 154.25L239 143.75L244.25 143.75L244.25 170L239 170L239 159.50L223.25 159.50L223.25 170Z"/>
<path d="M501.25 100L496 100L496 73.75L501.25 73.75L501.25 100Z"/>
<path d="M198.75 195L183 195L183 189.75L198.75 189.75L198.75 168.75L204 168.75L204 189.75Q204 191.96 202.44 193.48L202.44 193.48Q200.88 195 198.75 195L198.75 195Z"/>
<path d="M330.25 135L325 135L325 108.75L330.25 108.75L330.25 119.25L340.75 119.25L346 114L346 108.75L351.25 108.75L351.25 116.63L346 121.88L351.25 127.13L351.25 135L346 135L346 129.75L340.75 124.50L330.25 124.50L330.25 135Z"/>
<path d="M386.25 149L365.25 149Q363.04 149 361.52 147.48L361.52 147.48Q360 145.92 360 143.75L360 143.75L360 122.75L365.25 122.75L365.25 143.75L386.25 143.75L386.25 149Z"/>
<path d="M293.25 170L288 170L288 143.75L309 143.75Q311.17 143.75 312.69 145.31L312.69 145.31Q314.25 146.87 314.25 149L314.25 149L314.25 170L309 170L309 149L293.25 149L293.25 170Z"/>
<path d="M258.25 178.75L274 178.75L274 163L258.25 163L258.25 178.75ZM274 184L258.25 184Q256.04 184 254.52 182.48L254.52 182.48Q253 180.92 253 178.75L253 178.75L253 163Q253 160.83 254.52 159.31L254.52 159.31Q256.08 157.75 258.25 157.75L258.25 157.75L274 157.75Q276.17 157.75 277.69 159.31L277.69 159.31Q279.25 160.87 279.25 163L279.25 163L279.25 178.75Q279.25 180.96 277.69 182.48L277.69 182.48Q276.13 184 274 184L274 184Z"/>
<path d="M328.25 154.25L344 154.25L344 149L328.25 149L328.25 154.25ZM328.25 170L323 170L323 149Q323 146.83 324.52 145.31L324.52 145.31Q326.08 143.75 328.25 143.75L328.25 143.75L344 143.75Q346.17 143.75 347.69 145.31L347.69 145.31Q349.25 146.87 349.25 149L349.25 149L349.25 154.25Q349.25 156.46 347.69 157.98L347.69 157.98Q346.13 159.50 344 159.50L344 159.50L328.25 159.50L328.25 170Z"/>
<path d="M218.25 189.25L234 189.25L234 184L218.25 184L218.25 189.25ZM218.25 205L213 205L213 178.75L234 178.75Q236.17 178.75 237.69 180.31L237.69 180.31Q239.25 181.87 239.25 184L239.25 184L239.25 189.25Q239.25 190.36 238.47 191.14L238.47 191.14Q237.69 191.88 236.63 191.88L236.63 191.88Q237.69 191.88 238.47 192.65L238.47 192.65Q239.25 193.43 239.25 194.50L239.25 194.50L239.25 205L234 205L234 194.50L218.25 194.50L218.25 205Z"/>
<path d="M416 170L395 170L395 164.75L416 164.75L416 159.50L400.25 159.50Q398.04 159.50 396.52 157.98L396.52 157.98Q395 156.42 395 154.25L395 154.25L395 149Q395 146.83 396.52 145.31L396.52 145.31Q398.08 143.75 400.25 143.75L400.25 143.75L421.25 143.75L421.25 149L400.25 149L400.25 154.25L416 154.25Q418.17 154.25 419.69 155.81L419.69 155.81Q421.25 157.37 421.25 159.50L421.25 159.50L421.25 164.75Q421.25 166.96 419.69 168.48L419.69 168.48Q418.13 170 416 170L416 170Z"/>
<path d="M373.75 184L368.50 184L368.50 163L358 163L358 157.75L384.25 157.75L384.25 163L373.75 163L373.75 184Z"/>
<path d="M314.25 205L293.25 205Q291.04 205 289.52 203.48L289.52 203.48Q288 201.92 288 199.75L288 199.75L288 178.75L293.25 178.75L293.25 199.75L309 199.75L309 178.75L314.25 178.75L314.25 205Z"/>
<path d="M336.13 205L336.13 205L323 191.88L323 178.75L328.25 178.75L328.25 189.25L333.50 194.50L333.50 194.54L336.13 197.13L344 189.25L344 178.75L349.25 178.75L349.25 191.88L336.13 205Z"/>
<path d="M253.25 219L248 219L248 208.50Q248 207.43 248.74 206.65L248.74 206.65Q249.52 205.88 250.63 205.88L250.63 205.88Q249.52 205.88 248.74 205.14L248.74 205.14Q248 204.36 248 203.25L248 203.25L248 192.75L253.25 192.75L253.25 203.25L269 203.25L269 192.75L274.25 192.75L274.25 203.25Q274.25 204.36 273.47 205.14L273.47 205.14Q272.69 205.88 271.63 205.88L271.63 205.88Q272.69 205.88 273.47 206.65L273.47 206.65Q274.25 207.43 274.25 208.50L274.25 208.50L274.25 219L269 219L269 208.50L253.25 208.50L253.25 219Z"/>
<path d="M445.75 170L440.50 170L440.50 159.50L435.25 159.50Q433.04 159.50 431.52 157.98L431.52 157.98Q430 156.42 430 154.25L430 154.25L430 143.75L435.25 143.75L435.25 154.25L451 154.25L451 143.75L456.25 143.75L456.25 154.25Q456.25 156.46 454.69 157.98L454.69 157.98Q453.13 159.50 451 159.50L451 159.50L445.75 159.50L445.75 170Z"/>
<path d="M491.25 170L465 170L465 159.50Q465 157.33 466.52 155.81L466.52 155.81Q468.08 154.25 470.25 154.25L470.25 154.25L486 154.25L486 149L465 149L465 143.75L491.25 143.75L491.25 154.25Q491.25 156.46 489.69 157.98L489.69 157.98Q488.13 159.50 486 159.50L486 159.50L470.25 159.50L470.25 164.75L491.25 164.75L491.25 170Z"/>
<path d="M508.75 135L503.50 135Q501.29 135 499.77 133.48L499.77 133.48Q498.25 131.92 498.25 129.75L498.25 129.75L498.25 124.50Q497.14 124.50 496.36 123.76L496.36 123.76Q495.63 122.98 495.63 121.88L495.63 121.88Q495.63 120.81 496.36 120.03L496.36 120.03Q497.14 119.25 498.25 119.25L498.25 119.25L498.25 114Q498.25 111.83 499.77 110.31L499.77 110.31Q501.33 108.75 503.50 108.75L503.50 108.75L508.75 108.75L508.75 114L503.50 114L503.50 129.75L508.75 129.75L508.75 135Z"/>
<path d="M505.25 170L500 170L500 143.75L505.25 143.75L505.25 170Z"/>
<path d="M398.25 205L393 205L393 199.75L398.25 199.75L398.25 184L393 184L393 178.75L398.25 178.75Q400.42 178.75 401.94 180.31L401.94 180.31Q403.50 181.87 403.50 184L403.50 184L403.50 189.25Q404.57 189.25 405.35 190.03L405.35 190.03Q406.13 190.81 406.13 191.88L406.13 191.88Q406.13 192.98 405.35 193.76L405.35 193.76Q404.57 194.50 403.50 194.50L403.50 194.50L403.50 199.75Q403.50 201.96 401.94 203.48L401.94 203.48Q400.38 205 398.25 205L398.25 205Z"/>
<path d="M363.25 203.50L358 203.50L358 198.25Q358 196.08 359.52 194.56L359.52 194.56Q361.08 193 363.25 193L363.25 193L368.50 193Q370.67 193 372.19 194.56L372.19 194.56Q373.75 196.12 373.75 198.25L373.75 198.25L379 198.25L379 193L384.25 193L384.25 198.25Q384.25 200.46 382.69 201.98L382.69 201.98Q381.13 203.50 379 203.50L379 203.50L373.75 203.50Q371.54 203.50 370.02 201.98L370.02 201.98Q368.50 200.42 368.50 198.25L368.50 198.25L363.25 198.25L363.25 203.50Z"/>
<path d="M400.25 133.25L395 133.25L395 122.75L400.25 122.75L400.25 133.25ZM410.75 133.25L405.50 133.25L405.50 122.75L410.75 122.75L410.75 133.25Z"/>
<path d="M363.25 228.50L363.25 228.50L363.25 223.25Q361.04 223.25 359.52 221.73L359.52 221.73Q358 220.17 358 218L358 218L363.25 218Q363.25 215.83 364.77 214.31L364.77 214.31Q366.33 212.75 368.50 212.75L368.50 212.75L368.50 218Q370.67 218 372.19 219.56L372.19 219.56Q373.75 221.12 373.75 223.25L373.75 223.25L368.50 223.25Q368.50 225.46 366.94 226.98L366.94 226.98Q365.38 228.50 363.25 228.50L363.25 228.50Z"/>
<path d="M298.75 229.75L288.25 229.75Q286.04 229.75 284.52 228.23L284.52 228.23Q283 226.67 283 224.50L283 224.50L283 219.25Q283 217.08 284.52 215.56L284.52 215.56Q286.08 214 288.25 214L288.25 214L298.75 214L298.75 219.25L288.25 219.25L288.25 224.50L298.75 224.50L298.75 229.75Z"/>
<path d="M318.50 229.75L308 229.75L308 224.50L318.50 224.50L318.50 219.25L308 219.25L308 214L318.50 214Q320.67 214 322.19 215.56L322.19 215.56Q323.75 217.12 323.75 219.25L323.75 219.25L323.75 224.50Q323.75 226.71 322.19 228.23L322.19 228.23Q320.63 229.75 318.50 229.75L318.50 229.75Z"/>
<path d="M338.25 224.25L333 224.25L333 219Q333 216.83 334.52 215.31L334.52 215.31Q336.08 213.75 338.25 213.75L338.25 213.75L343.50 213.75Q345.67 213.75 347.19 215.31L347.19 215.31Q348.75 216.87 348.75 219L348.75 219L348.75 224.25L343.50 224.25L343.50 219L338.25 219L338.25 224.25Z"/>
<path d="M301.25 63.25L296 63.25L296 52.75L301.25 52.75L301.25 63.25Z"/>
<path d="M333 244.25L333 244.25L333 233.75L338.25 233.75L338.25 239Q338.25 241.17 336.69 242.69L336.69 242.69Q335.13 244.25 333 244.25L333 244.25Z"/>
<path d="M420.25 189.25L415 189.25L415 178.75L420.25 178.75L420.25 189.25Z"/>
<path d="M266.25 44L261 44L261 38.75L266.25 38.75L266.25 44Z"/>

</svg>