{
  "accessors": [
    {
      "bufferView": 2,
      "componentType": 5126,
      "count": 1523,
      "max": [
        410.67266845703125,
        161.20481872558594,
        595.392578125
      ],
      "min": [
        -385.78753662109375,
        -379.6117858886719,
        -596.8369750976563
      ],
      "type": "VEC3"
    },
    {
      "bufferView": 2,
      "byteOffset": 18276,
      "componentType": 5126,
      "count": 1523,
      "max": [
        0.9997057914733887,
        0.9997129440307617,
        0.9914577007293701
      ],
      "min": [
        -0.999941349029541,
        -0.9999756813049316,
        -0.9997948408126831
      ],
      "type": "VEC3"
    },
    {
      "bufferView": 3,
      "componentType": 5126,
      "count": 1523,
      "max": [
        0.9997104406356812,
        0.9986068606376648,
        0.9996371865272522,
        1.0
      ],
      "min": [
        -0.9952642917633057,
        -0.9997421503067017,
        -0.9990270137786865,
        1.0
      ],
      "type": "VEC4"
    },
    {
      "bufferView": 1,
      "componentType": 5126,
      "count": 1523,
      "max": [
        0.9923005700111389,
        0.9857007265090942
      ],
      "min": [
        0.0076983217149972916,
        0.0076978206634521484
      ],
      "type": "VEC2"
    },
    {
      "bufferView": 0,
      "componentType": 5125,
      "count": 7392,
      "type": "SCALAR"
    }
  ],
  "asset": {
    "extras": {
      "author": "Batuhan13 (https://sketchfab.com/Batuhan13)",
      "license": "CC-BY-4.0 (http://creativecommons.org/licenses/by/4.0/)",
      "source": "https://sketchfab.com/3d-models/hot-dog-stylized-435326b23a6240f48c2a48140522aa08",
      "title": "Hot Dog Stylized"
    },
    "generator": "Sketchfab-11.53.2",
    "version": "2.0"
  },
  "bufferViews": [
    {
      "buffer": 0,
      "byteLength": 29568,
      "name": "floatBufferViews",
      "target": 34963
    },
    {
      "buffer": 0,
      "byteLength": 12184,
      "byteOffset": 29568,
      "byteStride": 8,
      "name": "floatBufferViews",
      "target": 34962
    },
    {
      "buffer": 0,
      "byteLength": 36552,
      "byteOffset": 41752,
      "byteStride": 12,
      "name": "floatBufferViews",
      "target": 34962
    },
    {
      "buffer": 0,
      "byteLength": 24368,
      "byteOffset": 78304,
      "byteStride": 16,
      "name": "floatBufferViews",
      "target": 34962
    }
  ],
  "buffers": [
    {
      "byteLength": 102672,
      "uri": "scene.bin"
    }
  ],
  "images": [
    {
      "uri": "textures/HotDog_baseColor.png"
    },
    {
      "uri": "textures/HotDog_metallicRoughness.png"
    },
    {
      "uri": "textures/HotDog_normal.png"
    }
  ],
  "materials": [
    {
      "doubleSided": true,
      "name": "HotDog",
      "normalTexture": {
        "index": 2
      },
      "occlusionTexture": {
        "index": 1
      },
      "pbrMetallicRoughness": {
        "baseColorTexture": {
          "index": 0
        },
        "metallicRoughnessTexture": {
          "index": 1
        }
      }
    }
  ],
  "meshes": [
    {
      "name": "Cube.002_HotDog_0",
      "primitives": [
        {
          "attributes": {
            "NORMAL": 1,
            "POSITION": 0,
            "TANGENT": 2,
            "TEXCOORD_0": 3
          },
          "indices": 4,
          "material": 0,
          "mode": 4
        }
      ]
    }
  ],
  "nodes": [
    {
      "children": [
        1
      ],
      "matrix": [
        1.0,
        0.0,
        0.0,
        0.0,
        0.0,
        2.220446049250313e-16,
        -1.0,
        0.0,
        0.0,
        1.0,
        2.220446049250313e-16,
        0.0,
        0.0,
        0.0,
        0.0,
        1.0
      ],
      "name": "Sketchfab_model"
    },
    {
      "children": [
        2
      ],
      "matrix": [
        0.009999999776482582,
        0.0,
        0.0,
        0.0,
        0.0,
        0.0,
        0.009999999776482582,
        0.0,
        0.0,
        -0.009999999776482582,
        0.0,
        0.0,
        0.0,
        0.0,
        0.0,
        1.0
      ],
      "name": "27f19036b0734afb853db43069d0e83f.fbx"
    },
    {
      "children": [
        3
      ],
      "name": "RootNode"
    },
    {
      "children": [
        4
      ],
      "matrix": [
        1.0,
        0.0,
        0.0,
        0.0,
        0.0,
        1.0,
        0.0,
        0.0,
        0.0,
        0.0,
        1.0,
        0.0,
        -2.2497177124023438,
        65.36662292480469,
        -26.04365348815918,
        1.0
      ],
      "name": "Cube.002"
    },
    {
      "mesh": 0,
      "name": "Cube.002_HotDog_0"
    }
  ],
  "samplers": [
    {
      "magFilter": 9729,
      "minFilter": 9987,
      "wrapS": 10497,
      "wrapT": 10497
    }
  ],
  "scene": 0,
  "scenes": [
    {
      "name": "Sketchfab_Scene",
      "nodes": [
        0
      ]
    }
  ],
  "textures": [
    {
      "sampler": 0,
      "source": 0
    },
    {
      "sampler": 0,
      "source": 1
    },
    {
      "sampler": 0,
      "source": 2
    }
  ]
}
