<?xml version="1.0"?>
<!DOCTYPE svg PUBLIC "-//W3C//DTD SVG 1.1//EN" "http://www.w3.org/Graphics/SVG/1.1/DTD/svg11.dtd">
<svg xmlns="http://www.w3.org/2000/svg" version="1.1" width="512" height="512">
<path d="M33.19 54.60L41.59 54.60L41.59 12.60L16.40 12.60L16.40 54.60L24.80 54.60L24.80 37.81L33.19 37.81L33.19 54.60ZM33.19 67.19L24.80 67.19L24.80 63L16.40 63Q12.91 63 10.46 60.54L10.46 60.54Q8 58.08 8 54.60L8 54.60L8 12.60Q8 9.12 10.46 6.67L10.46 6.67Q12.92 4.20 16.40 4.20L16.40 4.20L41.59 4.20Q45.08 4.20 47.53 6.67L47.53 6.67Q50 9.13 50 12.60L50 12.60L50 54.60Q50 58.09 47.53 60.54L47.53 60.54Q45.07 63 41.59 63L41.59 63L33.19 63L33.19 67.19Z"/>
<path d="M16.40 135L8 135L8 126.60L16.40 126.60L16.40 135ZM16.40 118.20L8 118.20L8 76.20L16.40 76.20L16.40 118.20Z"/>
<path d="M24.80 177.81L33.19 177.81L33.19 169.41L24.80 169.41L24.80 177.81ZM24.80 203L16.40 203L16.40 186.20L8 186.20L8 177.81L16.40 177.81L16.40 169.41L8 169.41L8 161L16.40 161L16.40 144.20L24.80 144.20L24.80 161L33.19 161L33.19 144.20L41.59 144.20L41.59 161L50 161L50 169.41L41.59 169.41L41.59 177.81L50 177.81L50 186.20L41.59 186.20L41.59 203L33.19 203L33.19 186.20L24.80 186.20L24.80 203Z"/>
<path d="M50.19 135L41.80 135L41.80 126.60L33.40 126.60Q29.91 126.60 27.46 124.14L27.46 124.14Q25 121.68 25 118.20L25 118.20L25 109.81L25.03 109.81L29.19 105.60L25 101.41L25 93Q25 89.52 27.46 87.06L27.46 87.06Q29.92 84.60 33.40 84.60L33.40 84.60L41.80 84.60L41.80 76.20L50.19 76.20L50.19 84.60L58.59 84.60Q62.08 84.60 64.53 87.06L64.53 87.06Q67 89.52 67 93L67 93L67 101.41L58.59 101.41L58.59 93L33.40 93L33.40 101.41L50.19 101.41L50.19 109.81L33.40 109.81L33.40 118.20L58.59 118.20L58.59 109.81L67 109.81L67 118.20Q67 121.69 64.53 124.14L64.53 124.14Q62.07 126.60 58.59 126.60L58.59 126.60L50.19 126.60L50.19 135Z"/>
<path d="M75.80 63L67.40 63Q63.91 63 61.46 60.54L61.46 60.54Q59 58.08 59 54.60L59 54.60L59 12.60Q59 9.12 61.46 6.67L61.46 6.67Q63.92 4.20 67.40 4.20L67.40 4.20L75.80 4.20L75.80 12.60L67.40 12.60L67.40 54.60L75.80 54.60L75.80 63Z"/>
<path d="M16.40 271L8 271L8 262.60L16.40 262.60L16.40 220.60L8 220.60L8 212.20L16.40 212.20Q19.88 212.20 22.33 214.67L22.33 214.67Q24.80 217.13 24.80 220.60L24.80 220.60L24.80 262.60Q24.80 266.09 22.33 268.54L22.33 268.54Q19.87 271 16.40 271L16.40 271Z"/>
<path d="M8 338.40L8 338.40L8 321.60L16.40 321.60L16.40 330Q16.40 333.48 13.94 335.94L13.94 335.94Q11.48 338.40 8 338.40L8 338.40ZM16.40 288L8 288L8 279.60L16.40 279.60L16.40 288Z"/>
<path d="M33.19 407L24.80 407L24.80 398.60L33.19 398.60L33.19 407ZM33.19 390.20L24.80 390.20L24.80 381.81Q24.80 378.32 27.26 375.87L27.26 375.87Q29.72 373.41 33.19 373.41L33.19 373.41L41.59 373.41L41.59 356.60L8 356.60L8 348.20L41.59 348.20Q45.08 348.20 47.53 350.67L47.53 350.67Q50 353.13 50 356.60L50 356.60L50 373.41Q50 376.89 47.53 379.35L47.53 379.35Q45.07 381.81 41.59 381.81L41.59 381.81L33.19 381.81L33.19 390.20Z"/>
<path d="M67 339L33.40 339Q29.91 339 27.46 336.54L27.46 336.54Q25 334.08 25 330.60L25 330.60L25 288.60Q25 285.12 27.46 282.67L27.46 282.67Q29.92 280.20 33.40 280.20L33.40 280.20L58.59 280.20Q62.08 280.20 64.53 282.67L64.53 282.67Q67 285.13 67 288.60L67 288.60L67 313.81Q67 317.29 64.53 319.74L64.53 319.74Q62.07 322.20 58.59 322.20L58.59 322.20L50.19 322.20Q46.71 322.20 44.26 319.74L44.26 319.74Q41.80 317.28 41.80 313.81L41.80 313.81L41.80 297L50.19 297L50.19 313.81L58.59 313.81L58.59 288.60L33.40 288.60L33.40 330.60L67 330.60L67 339Z"/>
<path d="M42.40 271L34 271L34 220.60Q34 217.12 36.46 214.67L36.46 214.67Q38.92 212.20 42.40 212.20L42.40 212.20L67.59 212.20Q71.08 212.20 73.53 214.67L73.53 214.67Q76 217.13 76 220.60L76 220.60L76 271L67.59 271L67.59 220.60L42.40 220.60L42.40 237.41L59.19 237.41L63.40 241.60L59.19 245.81L42.40 245.81L42.40 271Z"/>
<path d="M67.40 194.60L92.59 194.60L92.59 152.60L67.40 152.60L67.40 169.41L84.19 169.41L88.40 173.60L84.19 177.81L67.40 177.81L67.40 194.60ZM92.59 203L59 203L59 144.20L92.59 144.20Q96.08 144.20 98.53 146.67L98.53 146.67Q101 149.13 101 152.60L101 152.60L101 169.41L100.96 169.41L96.80 173.60L101 177.81L101 194.60Q101 198.09 98.53 200.54L98.53 200.54Q96.07 203 92.59 203L92.59 203Z"/>
<path d="M118 131L84.40 131Q80.91 131 78.46 128.54L78.46 128.54Q76 126.08 76 122.60L76 122.60L76 80.60Q76 77.12 78.46 74.67L78.46 74.67Q80.92 72.20 84.40 72.20L84.40 72.20L118 72.20L118 80.60L84.40 80.60L84.40 122.60L118 122.60L118 131Z"/>
<path d="M93.40 63L85 63L85 4.20L118.59 4.20Q122.08 4.20 124.53 6.67L124.53 6.67Q127 9.13 127 12.60L127 12.60L127 54.60Q127 58.09 124.53 60.54L124.53 60.54Q122.07 63 118.59 63L118.59 63L101.80 63L97.59 58.81L101.80 54.60L118.59 54.60L118.59 12.60L93.40 12.60L93.40 63Z"/>
<path d="M50 449.81L24.80 449.81L20.59 445.60L24.80 441.41L50 441.41L50 449.81ZM50 475L8 475L8 416.20L50 416.20L50 424.60L16.40 424.60L16.40 466.60L50 466.60L50 475Z"/>
<path d="M101 381.81L75.80 381.81L71.59 377.60L75.80 373.41L101 373.41L101 381.81ZM67.40 407L59 407L59 356.60Q59 353.12 61.46 350.67L61.46 350.67Q63.92 348.20 67.40 348.20L67.40 348.20L101 348.20L101 356.60L67.40 356.60L67.40 407Z"/>
<path d="M109.59 339L84.40 339Q80.91 339 78.46 336.54L78.46 336.54Q76 334.08 76 330.60L76 330.60L76 288.60Q76 285.12 78.46 282.67L78.46 282.67Q80.92 280.20 84.40 280.20L84.40 280.20L118 280.20L118 288.60L84.40 288.60L84.40 330.60L109.59 330.60L109.59 313.81L92.80 313.81L92.80 305.41L118 305.41L118 330.60Q118 334.09 115.53 336.54L115.53 336.54Q113.07 339 109.59 339L109.59 339Z"/>
<path d="M93.40 271L85 271L85 212.20L93.40 212.20L93.40 237.41L110.19 237.41L114.40 241.60L110.19 245.81L93.40 245.81L93.40 271ZM127 271L118.59 271L118.59 212.20L127 212.20L127 271Z"/>
<path d="M118.40 199L110 199L110 140.20L118.40 140.20L118.40 199Z"/>
<path d="M92.59 475L59 475L59 466.60L92.59 466.60L92.59 424.60L59 424.60L59 416.20L101 416.20L101 466.60Q101 470.09 98.53 472.54L98.53 472.54Q96.07 475 92.59 475L92.59 475Z"/>
<path d="M135.40 131L127 131L127 72.20L135.40 72.20L135.40 131ZM169 131L160.59 131L160.59 122.60L139.59 101.60L160.59 80.60L160.59 72.20L169 72.20L169 84.81L152.19 101.60L169 118.41L169 131Z"/>
<path d="M178 63L136 63L136 4.20L144.40 4.20L144.40 54.60L178 54.60L178 63Z"/>
<path d="M135.40 199L127 199L127 140.20L152.19 140.20L152.19 140.23L156.40 144.41L160.59 140.20L185.80 140.20L185.80 199L177.40 199L177.40 148.60L160.59 148.60L160.59 182.20L152.19 182.20L152.19 148.60L135.40 148.60L135.40 199Z"/>
<path d="M186.40 131L178 131L178 72.20L211.59 72.20Q215.08 72.20 217.53 74.67L217.53 74.67Q220 77.13 220 80.60L220 80.60L220 131L211.59 131L211.59 80.60L186.40 80.60L186.40 131Z"/>
<path d="M195.40 54.60L220.59 54.60L220.59 12.60L195.40 12.60L195.40 54.60ZM220.59 63L195.40 63Q191.91 63 189.46 60.54L189.46 60.54Q187 58.08 187 54.60L187 54.60L187 12.60Q187 9.12 189.46 6.67L189.46 6.67Q191.92 4.20 195.40 4.20L195.40 4.20L220.59 4.20Q224.08 4.20 226.53 6.67L226.53 6.67Q229 9.13 229 12.60L229 12.60L229 54.60Q229 58.09 226.53 60.54L226.53 60.54Q224.07 63 220.59 63L220.59 63Z"/>
<path d="M118.40 407L110 407L110 348.20L143.59 348.20Q147.08 348.20 149.53 350.67L149.53 350.67Q152 353.13 152 356.60L152 356.60L152 373.41Q152 376.89 149.53 379.35L149.53 379.35Q147.07 381.81 143.59 381.81L143.59 381.81L126.80 381.81L122.59 377.60L126.80 373.41L143.59 373.41L143.59 356.60L118.40 356.60L118.40 407Z"/>
<path d="M135.40 339L127 339L127 280.20L160.59 280.20Q164.08 280.20 166.53 282.67L166.53 282.67Q169 285.13 169 288.60L169 288.60L169 305.41L168.96 305.41L164.80 309.60L169 313.81L169 339L160.59 339L160.59 313.81L143.80 313.81L139.59 309.60L143.80 305.41L160.59 305.41L160.59 288.60L135.40 288.60L135.40 339Z"/>
<path d="M178 267L136 267L136 258.60L169.59 258.60L169.59 241.81L144.40 241.81Q140.91 241.81 138.46 239.35L138.46 239.35Q136 236.88 136 233.41L136 233.41L136 208.20L178 208.20L178 216.60L144.40 216.60L144.40 233.41L169.59 233.41Q173.08 233.41 175.53 235.87L175.53 235.87Q178 238.33 178 241.81L178 241.81L178 267Z"/>
<path d="M135.19 475L126.80 475L126.80 424.60L110 424.60L110 416.20L152 416.20L152 424.60L135.19 424.60L135.19 475Z"/>
<path d="M194.59 407L169.40 407Q165.91 407 163.46 404.54L163.46 404.54Q161 402.08 161 398.60L161 398.60L161 348.20L169.40 348.20L169.40 398.60L194.59 398.60L194.59 348.20L203 348.20L203 398.60Q203 402.09 200.53 404.54L200.53 404.54Q198.07 407 194.59 407L194.59 407Z"/>
<path d="M199 335L199 335L178 314L178 276.20L186.40 276.20L186.40 309.81L194.80 318.20L194.80 318.23L199 322.41L211.59 309.81L211.59 276.20L220 276.20L220 314L199 335Z"/>
<path d="M203.80 267L195.40 267Q191.91 267 189.46 264.54L189.46 264.54Q187 262.08 187 258.60L187 258.60L187 208.20L195.40 208.20L195.40 258.60L203.80 258.60L203.80 241.81L212.19 241.81L212.19 258.60L220.59 258.60L220.59 208.20L229 208.20L229 258.60Q229 262.09 226.53 264.54L226.53 264.54Q224.07 267 220.59 267L220.59 267L212.19 267L212.19 266.97L208 262.81L203.80 267Z"/>
<path d="M203.40 199L195 199L195 173.81L195.03 173.81L199.19 169.60L195 165.41L195 140.20L203.40 140.20L203.40 165.41L228.59 165.41L228.59 140.20L237 140.20L237 165.41L236.96 165.41L232.80 169.60L237 173.81L237 199L228.59 199L228.59 173.81L203.40 173.81L203.40 199Z"/>
<path d="M254.19 131L245.80 131L245.80 105.81L237.40 105.81Q233.91 105.81 231.46 103.35L231.46 103.35Q229 100.88 229 97.41L229 97.41L229 72.20L237.40 72.20L237.40 97.41L262.59 97.41L262.59 72.20L271 72.20L271 97.41Q271 100.89 268.53 103.35L268.53 103.35Q266.07 105.81 262.59 105.81L262.59 105.81L254.19 105.81L254.19 131Z"/>
<path d="M280 63L238 63L238 37.81Q238 34.32 240.46 31.87L240.46 31.87Q242.92 29.41 246.40 29.41L246.40 29.41L271.59 29.41L271.59 12.60L238 12.60L238 4.20L280 4.20L280 29.41Q280 32.89 277.53 35.35L277.53 35.35Q275.07 37.81 271.59 37.81L271.59 37.81L246.40 37.81L246.40 54.60L280 54.60L280 63Z"/>
<path d="M177.80 475L161 475L161 416.20L177.80 416.20L177.80 424.60L169.40 424.60L169.40 466.60L177.80 466.60L177.80 475Z"/>
<path d="M203.80 475L187 475L187 466.60L195.40 466.60L195.40 424.60L187 424.60L187 416.20L203.80 416.20L203.80 475Z"/>
<path d="M220.40 386L212 386L212 344L237.19 344L237.19 344.04L241.40 348.20L245.59 344L270.80 344L270.80 386L262.40 386L262.40 352.41L245.59 352.41L245.59 377.60L237.19 377.60L237.19 352.41L220.40 352.41L220.40 386Z"/>
<path d="M249.80 335L241.40 335Q237.91 335 235.46 332.54L235.46 332.54Q233 330.08 233 326.60L233 326.60L233 309.81L228.81 305.60L233 301.41L233 284.60Q233 281.12 235.46 278.67L235.46 278.67Q237.92 276.20 241.40 276.20L241.40 276.20L249.80 276.20L249.80 284.60L241.40 284.60L241.40 301.41L241.36 301.41L237.19 305.60L241.40 309.81L241.40 326.60L249.80 326.60L249.80 335Z"/>
<path d="M246.40 267L238 267L238 208.20L246.40 208.20L246.40 267Z"/>
<path d="M254.40 199L246 199L246 190.60L254.40 190.60L254.40 173.81L254.43 173.81L258.59 169.60L254.40 165.41L254.40 148.60L246 148.60L246 140.20L254.40 140.20Q257.88 140.20 260.33 142.67L260.33 142.67Q262.80 145.13 262.80 148.60L262.80 148.60L262.80 165.41L267 169.60L262.80 173.81L262.80 190.60Q262.80 194.09 260.33 196.54L260.33 196.54Q257.87 199 254.40 199L254.40 199Z"/>
<path d="M280.19 258.19L271.80 258.19L271.80 254L263.40 254Q259.91 254 257.46 251.54L257.46 251.54Q255 249.08 255 245.60L255 245.60L255 241.41L263.40 241.41L263.40 245.60L288.59 245.60L288.59 237.20L263.40 237.20Q259.91 237.20 257.46 234.74L257.46 234.74Q255 232.28 255 228.81L255 228.81L255 220.41Q255 216.92 257.46 214.47L257.46 214.47Q259.92 212 263.40 212L263.40 212L271.80 212L271.80 207.81L280.19 207.81L280.19 212L288.59 212Q292.08 212 294.53 214.47L294.53 214.47Q297 216.93 297 220.41L297 220.41L297 224.60L288.59 224.60L288.59 220.41L263.40 220.41L263.40 228.81L288.59 228.81Q292.08 228.81 294.53 231.27L294.53 231.27Q297 233.73 297 237.20L297 237.20L297 245.60Q297 249.09 294.53 251.54L294.53 251.54Q292.07 254 288.59 254L288.59 254L280.19 254L280.19 258.19Z"/>
<path d="M284.40 190L276 190L276 173.20L284.40 173.20L284.40 190ZM292.80 173.20L284.40 173.20L284.40 156.41L292.80 156.41L292.80 173.20ZM301.19 156.41L292.80 156.41L292.80 139.60L301.19 139.60L301.19 156.41Z"/>
<path d="M288.40 122L280 122L280 113.60L288.40 113.60L288.40 122ZM288.40 80L280 80L280 71.60L288.40 71.60L288.40 80Z"/>
<path d="M314.19 54L305.80 54L305.80 37.20L314.19 37.20L314.19 54ZM305.80 37.20L297.40 37.20L297.40 20.41L305.80 20.41L305.80 37.20ZM297.40 20.41L289 20.41L289 3.60L297.40 3.60L297.40 20.41Z"/>
<path d="M284.19 300.60L292.59 300.60L292.59 275.41L267.40 275.41L267.40 300.60L275.80 300.60L275.80 283.81L284.19 283.81L284.19 300.60ZM284.19 313.19L275.80 313.19L275.80 309L267.40 309Q263.91 309 261.46 306.54L261.46 306.54Q259 304.08 259 300.60L259 300.60L259 275.41Q259 271.92 261.46 269.47L261.46 269.47Q263.92 267 267.40 267L267.40 267L292.59 267Q296.08 267 298.53 269.47L298.53 269.47Q301 271.93 301 275.41L301 275.41L301 300.60Q301 304.09 298.53 306.54L298.53 306.54Q296.07 309 292.59 309L292.59 309L284.19 309L284.19 313.19Z"/>
<path d="M339.59 241L331.19 241L331.19 232.60L339.59 232.60L339.59 241ZM314.40 207.41L306 207.41L306 199L314.40 199L314.40 207.41ZM314.40 241L306 241L306 232.60L331.19 207.41L331.19 199L339.59 199L339.59 211.60L314.40 236.81L314.40 241Z"/>
<path d="M322.19 105L313.80 105L313.80 88.20L297 88.20L297 79.81L313.80 79.81L313.80 63L322.19 63L322.19 79.81L339 79.81L339 88.20L322.19 88.20L322.19 105Z"/>
<path d="M348 258.20L306 258.20L306 249.81L348 249.81L348 258.20Z"/>
<path d="M331.40 37.60L356.59 37.60L356.59 12.41L331.40 12.41L331.40 37.60ZM356.59 46L331.40 46Q327.91 46 325.46 43.54L325.46 43.54Q323 41.08 323 37.60L323 37.60L323 12.41Q323 8.92 325.46 6.47L325.46 6.47Q327.92 4 331.40 4L331.40 4L356.59 4Q360.08 4 362.53 6.47L362.53 6.47Q365 8.93 365 12.41L365 12.41L365 37.60Q365 41.09 362.53 43.54L362.53 43.54Q360.07 46 356.59 46L356.59 46Z"/>
<path d="M326.80 156L318.40 156L318.40 122.41L310 122.41L310 114L326.80 114L326.80 156Z"/>
<path d="M378 156L336 156L336 139.20Q336 135.72 338.46 133.27L338.46 133.27Q340.92 130.81 344.40 130.81L344.40 130.81L369.59 130.81L369.59 122.41L336 122.41L336 114L378 114L378 130.81Q378 134.29 375.53 136.74L375.53 136.74Q373.07 139.20 369.59 139.20L369.59 139.20L344.40 139.20L344.40 147.60L378 147.60L378 156Z"/>
<path d="M373.19 80.20L348 80.20L348 71.81L373.19 71.81L377.40 76L373.19 80.20ZM381.59 97L348 97L348 88.60L381.59 88.60L381.59 63.41L348 63.41L348 55L381.59 55Q385.08 55 387.53 57.47L387.53 57.47Q390 59.93 390 63.41L390 63.41L390 88.60Q390 92.09 387.53 94.54L387.53 94.54Q385.07 97 381.59 97L381.59 97Z"/>
<path d="M416 46L407.59 46L407.59 29.20L382.40 29.20Q378.91 29.20 376.46 26.74L376.46 26.74Q374 24.28 374 20.81L374 20.81L374 4L382.40 4L382.40 20.81L407.59 20.81L407.59 4L416 4L416 46Z"/>
<path d="M391 207L349 207L349 198.60L382.59 198.60L382.59 190.20L357.40 190.20Q353.91 190.20 351.46 187.74L351.46 187.74Q349 185.28 349 181.81L349 181.81L349 165L391 165L391 173.41L357.40 173.41L357.40 181.81L382.59 181.81Q386.08 181.81 388.53 184.27L388.53 184.27Q391 186.73 391 190.20L391 190.20L391 207Z"/>
<path d="M395.40 139.60L420.59 139.60L420.59 131.20L395.40 131.20L395.40 139.60ZM420.59 148L395.40 148Q391.91 148 389.46 145.54L389.46 145.54Q387 143.08 387 139.60L387 139.60L387 106L395.40 106L395.40 122.81L420.59 122.81Q424.08 122.81 426.53 125.27L426.53 125.27Q429 127.73 429 131.20L429 131.20L429 139.60Q429 143.09 426.53 145.54L426.53 145.54Q424.07 148 420.59 148L420.59 148Z"/>
<path d="M441 97L432.59 97L432.59 63.41L399 63.41L399 55L441 55L441 97Z"/>
<path d="M433.40 37.60L458.59 37.60L458.59 29.20L433.40 29.20L433.40 37.60ZM433.40 20.81L458.59 20.81L458.59 12.41L433.40 12.41L433.40 20.81ZM458.59 46L433.40 46Q429.91 46 427.46 43.54L427.46 43.54Q425 41.08 425 37.60L425 37.60L425 29.20L425.03 29.20L429.19 25L425 20.81L425 12.41Q425 8.92 427.46 6.47L427.46 6.47Q429.92 4 433.40 4L433.40 4L458.59 4Q462.08 4 464.53 6.47L464.53 6.47Q467 8.93 467 12.41L467 12.41L467 20.81L466.96 20.81L462.80 25L467 29.20L467 37.60Q467 41.09 464.53 43.54L464.53 43.54Q462.07 46 458.59 46L458.59 46Z"/>
<path d="M458.40 71.81L483.59 71.81L483.59 63.41L458.40 63.41L458.40 71.81ZM492 97L483.59 97L483.59 80.20L458.40 80.20Q454.91 80.20 452.46 77.74L452.46 77.74Q450 75.28 450 71.81L450 71.81L450 63.41Q450 59.92 452.46 57.47L452.46 57.47Q454.92 55 458.40 55L458.40 55L492 55L492 97Z"/>
<path d="M501.19 45.60L492.80 45.60L476 28.81L476 20.41L492.80 3.60L501.19 3.60L501.19 12L492.80 20.41L492.77 20.41L488.59 24.60L501.19 37.20L501.19 45.60Z"/>
<path d="M391 241.20L349 241.20L349 232.81L391 232.81L391 241.20ZM391 224.41L349 224.41L349 216L391 216L391 224.41Z"/>
<path d="M446.40 147.60L438 147.60L438 139.20L446.40 130.81L446.43 130.81L450.59 126.60L438 114L438 105.60L446.40 105.60L463.19 122.41L463.19 130.81L446.40 147.60Z"/>
<path d="M408.40 182.41L400 182.41L400 174L416.80 157.20L425.19 157.20L442 174L442 182.41L433.59 182.41L425.19 174L425.19 173.97L421 169.81L408.40 182.41Z"/>
<path d="M254 403L212 403L212 394.60L254 394.60L254 403Z"/>
<path d="M459.40 199L451 199L451 165.41Q451 161.92 453.46 159.47L453.46 159.47Q455.92 157 459.40 157L459.40 157L484.59 157Q488.08 157 490.53 159.47L490.53 159.47Q493 161.93 493 165.41L493 165.41L493 199L484.59 199L484.59 165.41L459.40 165.41L459.40 173.81L476.19 173.81L480.40 178L476.19 182.20L459.40 182.20L459.40 199Z"/>
<path d="M408.40 224.60L433.59 224.60L433.59 199.41L408.40 199.41L408.40 207.81L425.19 207.81L429.40 212L425.19 216.20L408.40 216.20L408.40 224.60ZM433.59 233L400 233L400 191L433.59 191Q437.08 191 439.53 193.47L439.53 193.47Q442 195.93 442 199.41L442 199.41L442 207.81L441.96 207.81L437.80 212L442 216.20L442 224.60Q442 228.09 439.53 230.54L439.53 230.54Q437.07 233 433.59 233L433.59 233Z"/>
<path d="M493 250L459.40 250Q455.91 250 453.46 247.54L453.46 247.54Q451 245.08 451 241.60L451 241.60L451 216.41Q451 212.92 453.46 210.47L453.46 210.47Q455.92 208 459.40 208L459.40 208L493 208L493 216.41L459.40 216.41L459.40 241.60L493 241.60L493 250Z"/>
<path d="M408.40 284L400 284L400 242L433.59 242Q437.08 242 439.53 244.47L439.53 244.47Q442 246.93 442 250.41L442 250.41L442 275.60Q442 279.09 439.53 281.54L439.53 281.54Q437.07 284 433.59 284L433.59 284L416.80 284L412.59 279.81L416.80 275.60L433.59 275.60L433.59 250.41L408.40 250.41L408.40 284Z"/>
<path d="M493 284.20L467.80 284.20L463.59 280L467.80 275.81L493 275.81L493 284.20ZM493 301L451 301L451 259L493 259L493 267.41L459.40 267.41L459.40 292.60L493 292.60L493 301Z"/>
<path d="M352 292.20L326.80 292.20L322.59 288L326.80 283.81L352 283.81L352 292.20ZM318.40 309L310 309L310 275.41Q310 271.92 312.46 269.47L312.46 269.47Q314.92 267 318.40 267L318.40 267L352 267L352 275.41L318.40 275.41L318.40 309Z"/>
<path d="M394.59 335L369.40 335Q365.91 335 363.46 332.54L363.46 332.54Q361 330.08 361 326.60L361 326.60L361 301.41Q361 297.92 363.46 295.47L363.46 295.47Q365.92 293 369.40 293L369.40 293L403 293L403 301.41L369.40 301.41L369.40 326.60L394.59 326.60L394.59 318.20L377.80 318.20L377.80 309.81L403 309.81L403 326.60Q403 330.09 400.53 332.54L400.53 332.54Q398.07 335 394.59 335L394.59 335Z"/>
<path d="M318.40 360L310 360L310 318L318.40 318L318.40 334.81L335.19 334.81L339.40 339L335.19 343.20L318.40 343.20L318.40 360ZM352 360L343.59 360L343.59 318L352 318L352 360Z"/>
<path d="M480.40 148L472 148L472 106L480.40 106L480.40 148Z"/>
<path d="M246.59 454L213 454L213 445.60L246.59 445.60L246.59 420.41L213 420.41L213 412L255 412L255 445.60Q255 449.09 252.53 451.54L252.53 451.54Q250.07 454 246.59 454L246.59 454Z"/>
<path d="M221.40 505L213 505L213 463L221.40 463L221.40 505ZM255 505L246.59 505L246.59 496.60L238.19 488.20L229.80 488.20L225.59 484L229.80 479.81L238.19 479.81L246.59 471.41L246.59 463L255 463L255 475.60L246.59 484L255 492.41L255 505Z"/>
<path d="M454 352L412 352L412 310L420.40 310L420.40 343.60L454 343.60L454 352Z"/>
<path d="M369.40 386L361 386L361 344L394.59 344Q398.08 344 400.53 346.47L400.53 346.47Q403 348.93 403 352.41L403 352.41L403 386L394.59 386L394.59 352.41L369.40 352.41L369.40 386Z"/>
<path d="M471.40 343.60L496.59 343.60L496.59 318.41L471.40 318.41L471.40 343.60ZM496.59 352L471.40 352Q467.91 352 465.46 349.54L465.46 349.54Q463 347.08 463 343.60L463 343.60L463 318.41Q463 314.92 465.46 312.47L465.46 312.47Q467.92 310 471.40 310L471.40 310L496.59 310Q500.08 310 502.53 312.47L502.53 312.47Q505 314.93 505 318.41L505 318.41L505 343.60Q505 347.09 502.53 349.54L502.53 349.54Q500.07 352 496.59 352L496.59 352Z"/>
<path d="M288.40 411L280 411L280 369L313.59 369Q317.08 369 319.53 371.47L319.53 371.47Q322 373.93 322 377.41L322 377.41L322 385.81Q322 389.29 319.53 391.74L319.53 391.74Q317.07 394.20 313.59 394.20L313.59 394.20L296.80 394.20L292.59 390L296.80 385.81L313.59 385.81L313.59 377.41L288.40 377.41L288.40 411Z"/>
<path d="M272.40 462L264 462L264 420L297.59 420Q301.08 420 303.53 422.47L303.53 422.47Q306 424.93 306 428.41L306 428.41L306 436.81L305.96 436.81L301.80 441L306 445.20L306 462L297.59 462L297.59 445.20L280.80 445.20L276.59 441L280.80 436.81L297.59 436.81L297.59 428.41L272.40 428.41L272.40 462Z"/>
<path d="M357 462L315 462L315 453.60L348.59 453.60L348.59 445.20L323.40 445.20Q319.91 445.20 317.46 442.74L317.46 442.74Q315 440.28 315 436.81L315 436.81L315 420L357 420L357 428.41L323.40 428.41L323.40 436.81L348.59 436.81Q352.08 436.81 354.53 439.27L354.53 439.27Q357 441.73 357 445.20L357 445.20L357 462Z"/>
<path d="M437.19 403L428.80 403L428.80 369.41L412 369.41L412 361L454 361L454 369.41L437.19 369.41L437.19 403Z"/>
<path d="M496.59 403L471.40 403Q467.91 403 465.46 400.54L465.46 400.54Q463 398.08 463 394.60L463 394.60L463 361L471.40 361L471.40 394.60L496.59 394.60L496.59 361L505 361L505 394.60Q505 398.09 502.53 400.54L502.53 400.54Q500.07 403 496.59 403L496.59 403Z"/>
<path d="M387 454L387 454L366 433L366 412L374.40 412L374.40 428.81L382.80 437.20L382.80 437.23L387 441.41L399.59 428.81L399.59 412L408 412L408 433L387 454Z"/>
<path d="M382.80 505L374.40 505Q370.91 505 368.46 502.54L368.46 502.54Q366 500.08 366 496.60L366 496.60L366 463L374.40 463L374.40 496.60L382.80 496.60L382.80 479.81L391.19 479.81L391.19 496.60L399.59 496.60L399.59 463L408 463L408 496.60Q408 500.09 405.53 502.54L405.53 502.54Q403.07 505 399.59 505L399.59 505L391.19 505L391.19 504.97L387 500.81L382.80 505Z"/>
<path d="M425.40 454L417 454L417 437.20L417.03 437.20L421.19 433L417 428.81L417 412L425.40 412L425.40 428.81L450.59 428.81L450.59 412L459 412L459 428.81L458.96 428.81L454.80 433L459 437.20L459 454L450.59 454L450.59 437.20L425.40 437.20L425.40 454Z"/>
<path d="M493.19 454L484.80 454L484.80 437.20L476.40 437.20Q472.91 437.20 470.46 434.74L470.46 434.74Q468 432.28 468 428.81L468 428.81L468 412L476.40 412L476.40 428.81L501.59 428.81L501.59 412L510 412L510 428.81Q510 432.29 507.53 434.74L507.53 434.74Q505.07 437.20 501.59 437.20L501.59 437.20L493.19 437.20L493.19 454Z"/>
<path d="M459 505L417 505L417 488.20Q417 484.72 419.46 482.27L419.46 482.27Q421.92 479.81 425.40 479.81L425.40 479.81L450.59 479.81L450.59 471.41L417 471.41L417 463L459 463L459 479.81Q459 483.29 456.53 485.74L456.53 485.74Q454.07 488.20 450.59 488.20L450.59 488.20L425.40 488.20L425.40 496.60L459 496.60L459 505Z"/>
<path d="M476.40 479.81L468 479.81L468 471.41Q468 467.92 470.46 465.47L470.46 465.47Q472.92 463 476.40 463L476.40 463L484.80 463Q488.28 463 490.73 465.47L490.73 465.47Q493.19 467.93 493.19 471.41L493.19 471.41L501.59 471.41L501.59 463L510 463L510 471.41Q510 474.89 507.53 477.35L507.53 477.35Q505.07 479.81 501.59 479.81L501.59 479.81L493.19 479.81Q489.71 479.81 487.26 477.35L487.26 477.35Q484.80 474.88 484.80 471.41L484.80 471.41L476.40 471.41L476.40 479.81Z"/>
<path d="M476.40 506L468 506L468 489.20L476.40 489.20L476.40 506ZM493.19 506L484.80 506L484.80 489.20L493.19 489.20L493.19 506Z"/>
<path d="M326.80 190.41L318.40 190.41L318.40 182L326.80 182L326.80 190.41ZM318.40 182L310 182L310 173.60L318.40 173.60L318.40 182ZM335.19 182L326.80 182L326.80 173.60L335.19 173.60L335.19 182ZM326.80 173.60L318.40 173.60L318.40 165.20L326.80 165.20L326.80 173.60Z"/>
<path d="M510.40 72L502 72L502 55.20L510.40 55.20L510.40 72Z"/>
<path d="M502 505.40L502 505.40L502 488.60L510.40 488.60L510.40 497Q510.40 500.48 507.94 502.94L507.94 502.94Q505.48 505.40 502 505.40L502 505.40Z"/>
<path d="M510.40 98L510.40 98Q506.91 98 504.46 95.54L504.46 95.54Q502 93.08 502 89.60L502 89.60L502 81.20L510.40 81.20L510.40 98Z"/>
<path d="M365.40 258L357 258L357 249.60L365.40 249.60L365.40 258Z"/>

</svg>